<svg width="373" height="373" viewBox="0 0 373 373" fill="none" xmlns="http://www.w3.org/2000/svg">
<path d="M186.394 293.171C186.394 281.69 178.803 270.208 167.417 270.208C156.03 270.208 144.645 277.445 144.645 296.998C144.645 327.615 186.394 346.75 186.394 346.75" stroke="#1C1B1A" stroke-width="10.6667" stroke-miterlimit="10" stroke-linecap="round" stroke-linejoin="round"/>
<path d="M186.394 293.171C186.394 281.69 193.985 270.208 205.371 270.208C216.758 270.208 228.143 277.445 228.143 296.998C228.143 327.615 186.394 346.75 186.394 346.75" stroke="#1C1B1A" stroke-width="10.6667" stroke-miterlimit="10" stroke-linecap="round" stroke-linejoin="round"/>
<path d="M249.018 96.25C249.018 130.833 220.98 158.875 186.394 158.875C151.808 158.875 123.77 130.833 123.77 96.25C123.77 61.6671 151.808 33.625 186.394 33.625C220.98 33.625 249.018 61.6671 249.018 96.25Z" stroke="#1C1B1A" stroke-width="10.6667" stroke-miterlimit="10"/>
<path d="M197.002 63.1111C215.302 68.9735 225.386 88.5612 219.527 106.862C213.67 125.162 194.084 135.252 175.786 129.389C157.486 123.527 147.4 103.939 153.261 85.6387" stroke="#1C1B1A" stroke-width="10.6667" stroke-miterlimit="10" stroke-linecap="round"/>
<path d="M346.433 186.709L367.307 228.459V298.042H311.642" stroke="#1C1B1A" stroke-width="10.6667" stroke-miterlimit="10" stroke-linecap="round" stroke-linejoin="round"/>
<path d="M75.0625 186.709H346.433V33.6253C346.433 18.2474 333.971 5.792 318.6 5.792H54.1879C38.8172 5.792 26.3551 18.2474 26.3551 33.6253V186.709L5.48047 228.459V298.042H60.5547" stroke="#1C1B1A" stroke-width="10.6667" stroke-miterlimit="10" stroke-linecap="round" stroke-linejoin="round"/>
<path d="M276.851 47.5417H318.6V75.375H276.851" stroke="#1C1B1A" stroke-width="10.6667" stroke-miterlimit="10" stroke-linecap="round" stroke-linejoin="round"/>
<path d="M47.23 249.333H325.558" stroke="#1C1B1A" stroke-width="10.6667" stroke-miterlimit="10" stroke-linecap="round" stroke-linejoin="round"/>
<path d="M311.642 249.333V367.625H61.1462V249.333" stroke="#1C1B1A" stroke-width="10.6667" stroke-miterlimit="10" stroke-linecap="round" stroke-linejoin="round"/>
</svg>
