<svg width="417" height="366" viewBox="0 0 417 366" fill="none" xmlns="http://www.w3.org/2000/svg">
<path d="M74.8234 257.94L35.9951 218.713L225.281 27.5028L264.109 66.7299L74.8234 257.94Z" stroke="#1C1B1A" stroke-width="10.6667" stroke-miterlimit="10" stroke-linecap="round" stroke-linejoin="round"/>
<path d="M35.9952 218.714L21.4346 272.646L74.8234 257.941" stroke="#1C1B1A" stroke-width="10.6667" stroke-miterlimit="10" stroke-linecap="round" stroke-linejoin="round"/>
<path d="M225.281 27.5033L244.697 7.8898C244.697 7.8898 254.402 -1.92572 273.817 17.6878C293.231 37.3014 283.525 47.1169 283.525 47.1169L264.11 66.7305" stroke="#1C1B1A" stroke-width="10.6667" stroke-miterlimit="10" stroke-linecap="round" stroke-linejoin="round"/>
<path d="M210.722 52.0068L244.697 86.3262" stroke="#1C1B1A" stroke-width="10.6667" stroke-miterlimit="10" stroke-linecap="round" stroke-linejoin="round"/>
<path d="M7.51255 290.85C7.51255 290.85 -6.40938 346.541 42.3174 346.541C76.8438 346.541 146.319 290.624 183.881 258.028C198.495 245.341 220.396 246.176 234.078 259.855L334.678 360.464" stroke="#1C1B1A" stroke-width="10.6667" stroke-miterlimit="10" stroke-linecap="round" stroke-linejoin="round"/>
<path d="M278.99 269.966L317.262 240.189C331.368 229.225 351.309 229.938 364.593 241.894L411.249 283.889" stroke="#1C1B1A" stroke-width="10.6667" stroke-miterlimit="10" stroke-linecap="round" stroke-linejoin="round"/>
<path d="M299.873 186.43C299.873 201.815 287.408 214.275 272.029 214.275C256.651 214.275 244.186 201.815 244.186 186.43C244.186 171.045 256.651 158.585 272.029 158.585C287.408 158.585 299.873 171.045 299.873 186.43Z" stroke="#1C1B1A" stroke-width="10.6667" stroke-miterlimit="10" stroke-linecap="round" stroke-linejoin="round"/>
</svg>
