<svg width="429" height="380" viewBox="0 0 429 380" fill="none" xmlns="http://www.w3.org/2000/svg">
<path d="M301.887 193.291C301.397 193.447 300.915 193.587 300.422 193.743" stroke="#1C1B1A" stroke-width="10.6667" stroke-miterlimit="10" stroke-linecap="round" stroke-linejoin="round"/>
<path d="M242.352 218.421C232.448 224.112 222.947 230.586 214.324 237.965" stroke="#1C1B1A" stroke-width="10.6667" stroke-miterlimit="10" stroke-linecap="round" stroke-linejoin="round"/>
<path d="M301.887 193.291C337.327 182.466 366.198 179.49 366.198 179.49" stroke="#1C1B1A" stroke-width="10.6667" stroke-miterlimit="10" stroke-linecap="round" stroke-linejoin="round"/>
<path d="M423.153 297.832V267.202" stroke="#1C1B1A" stroke-width="10.6667" stroke-miterlimit="10" stroke-linecap="round" stroke-linejoin="round"/>
<path d="M423.153 297.833V325.678C423.153 325.678 297.855 318.717 235.207 374.407C216.222 374.407 214.324 374.407 214.324 374.407" stroke="#1C1B1A" stroke-width="10.6667" stroke-miterlimit="10" stroke-linecap="round" stroke-linejoin="round"/>
<path d="M249.128 304.794C315.574 265.81 423.153 267.203 423.153 267.203" stroke="#1C1B1A" stroke-width="10.6667" stroke-miterlimit="10" stroke-linecap="round" stroke-linejoin="round"/>
<path d="M366.198 179.489L423.153 267.202" stroke="#1C1B1A" stroke-width="10.6667" stroke-miterlimit="10" stroke-linecap="round" stroke-linejoin="round"/>
<path d="M62.4492 179.49C62.4492 179.49 71.335 180.412 85.2656 183.058" stroke="#1C1B1A" stroke-width="10.6667" stroke-miterlimit="10" stroke-linecap="round" stroke-linejoin="round"/>
<path d="M214.324 374.407C214.324 374.407 212.425 374.407 193.441 374.407C137.753 318.717 5.49463 325.678 5.49463 325.678V297.833" stroke="#1C1B1A" stroke-width="10.6667" stroke-miterlimit="10" stroke-linecap="round" stroke-linejoin="round"/>
<path d="M5.49463 267.202V297.832" stroke="#1C1B1A" stroke-width="10.6667" stroke-miterlimit="10" stroke-linecap="round" stroke-linejoin="round"/>
<path d="M85.2655 183.058C99.0952 155.961 109.909 130.761 109.909 130.761C109.909 130.761 207.363 179.49 214.324 235.181" stroke="#1C1B1A" stroke-width="10.6667" stroke-miterlimit="10" stroke-linecap="round" stroke-linejoin="round"/>
<path d="M85.2656 183.058C79.8604 193.656 74.0114 204.516 68.1433 214.297C109.909 228.219 179.519 304.794 179.519 304.794C113.073 265.81 5.49463 267.203 5.49463 267.203" stroke="#1C1B1A" stroke-width="10.6667" stroke-miterlimit="10" stroke-linecap="round" stroke-linejoin="round"/>
<path d="M62.4492 179.489L5.49463 267.202" stroke="#1C1B1A" stroke-width="10.6667" stroke-miterlimit="10" stroke-linecap="round" stroke-linejoin="round"/>
<path d="M165.597 325.678C116.87 297.832 5.49463 297.832 5.49463 297.832" stroke="#1C1B1A" stroke-width="10.6667" stroke-miterlimit="10" stroke-linecap="round" stroke-linejoin="round"/>
<path d="M263.05 325.678C311.777 297.832 423.153 297.832 423.153 297.832" stroke="#1C1B1A" stroke-width="10.6667" stroke-miterlimit="10" stroke-linecap="round" stroke-linejoin="round"/>
<path d="M300.422 193.743L261.336 183.266" stroke="#1C1B1A" stroke-width="10.6667" stroke-miterlimit="10" stroke-linecap="round" stroke-linejoin="round"/>
<path d="M301.679 194.074L300.422 193.744" stroke="#1C1B1A" stroke-width="10.6667" stroke-miterlimit="10" stroke-linecap="round" stroke-linejoin="round"/>
<path d="M341.314 46.1455L300.972 35.3381" stroke="#1C1B1A" stroke-width="10.6667" stroke-miterlimit="10" stroke-linecap="round" stroke-linejoin="round"/>
<path d="M301.887 193.291L301.678 194.074" stroke="#1C1B1A" stroke-width="10.6667" stroke-miterlimit="10" stroke-linecap="round" stroke-linejoin="round"/>
<path d="M301.887 193.291L341.314 46.1457" stroke="#1C1B1A" stroke-width="10.6667" stroke-miterlimit="10" stroke-linecap="round" stroke-linejoin="round"/>
<path d="M300.972 35.3382L290.162 75.6791L261.336 183.267" stroke="#1C1B1A" stroke-width="10.6667" stroke-miterlimit="10" stroke-linecap="round" stroke-linejoin="round"/>
<path d="M266.087 206.482L261.336 183.266" stroke="#1C1B1A" stroke-width="10.6667" stroke-miterlimit="10" stroke-linecap="round" stroke-linejoin="round"/>
<path d="M266.087 206.482L270.699 229.02L301.679 194.074" stroke="#1C1B1A" stroke-width="10.6667" stroke-miterlimit="10" stroke-linecap="round" stroke-linejoin="round"/>
<path d="M341.314 46.1455L346.009 28.6203C348.392 19.7272 343.117 10.5905 334.228 8.20622L326.073 6.0308C317.186 3.64654 308.048 8.91979 305.667 17.8129L300.972 35.3381" stroke="#1C1B1A" stroke-width="10.6667" stroke-miterlimit="10" stroke-linecap="round" stroke-linejoin="round"/>
<path d="M214.324 242.142V290.871" stroke="#1C1B1A" stroke-width="10.6667" stroke-miterlimit="10" stroke-linecap="round" stroke-linejoin="round"/>
</svg>
