<svg width="167" height="287" viewBox="0 0 167 287" fill="none" xmlns="http://www.w3.org/2000/svg">
<path d="M15.0856 139.968H65.2399C67.0256 139.968 68.6921 140.857 69.6758 142.352C70.6535 143.847 70.8152 145.725 70.1001 147.382L25.63 249.492L149.623 101.508L98.0243 100.922C96.0568 100.902 94.2712 99.7909 93.3702 98.0335C92.4754 96.2963 92.6149 94.1753 93.7441 92.5795L150.694 11.1335H86.1429L15.0856 139.968ZM6.10273 286.337C5.15131 286.337 4.18368 286.074 3.31913 285.549C1.07694 284.155 0.196222 281.347 1.24864 278.924L57.1479 150.553H6.10874C4.23419 150.553 2.49496 149.563 1.54355 147.947C0.590112 146.331 0.559884 144.332 1.46484 142.695L78.3679 3.27563C79.2991 1.57886 81.0808 0.528534 83.0119 0.528534H160.872C162.85 0.528534 164.662 1.61926 165.573 3.37665C166.488 5.13403 166.348 7.23495 165.215 8.85092L108.181 90.4181L160.933 91.0442C162.983 91.0644 164.833 92.2764 165.686 94.1348C166.546 95.9931 166.251 98.1749 164.936 99.7505L10.173 284.438C9.13269 285.691 7.62984 286.337 6.10273 286.337Z" fill="#1D1B19"/>
</svg>
