<svg width="345" height="380" viewBox="0 0 345 380" fill="none" xmlns="http://www.w3.org/2000/svg">
<path d="M130.773 297.853V242.162C130.773 219.085 149.481 200.394 172.539 200.394H207.344C230.402 200.394 249.109 181.703 249.109 158.626V61.1676" stroke="#1C1B1A" stroke-width="10.6667" stroke-miterlimit="10" stroke-linecap="round" stroke-linejoin="round"/>
<path d="M221.265 82.0518L249.109 54.2064L276.953 82.0518" stroke="#1C1B1A" stroke-width="10.6667" stroke-miterlimit="10" stroke-linecap="round" stroke-linejoin="round"/>
<path d="M165.578 123.82C165.578 139.204 153.118 151.665 137.734 151.665C122.35 151.665 109.89 139.204 109.89 123.82C109.89 108.435 122.35 95.9743 137.734 95.9743C153.118 95.9743 165.578 108.435 165.578 123.82Z" stroke="#1C1B1A" stroke-width="10.6667" stroke-miterlimit="10" stroke-linecap="round" stroke-linejoin="round"/>
<path d="M339.602 332.66V5.4773H47.2415V325.699" stroke="#1C1B1A" stroke-width="10.6667" stroke-miterlimit="10" stroke-linecap="round" stroke-linejoin="round"/>
<path d="M47.2414 374.428C24.1832 374.428 5.47559 355.737 5.47559 332.66" stroke="#1C1B1A" stroke-width="10.6667" stroke-miterlimit="10" stroke-linecap="round" stroke-linejoin="round"/>
<path d="M297.836 374.428C274.778 374.428 256.07 355.737 256.07 332.66" stroke="#1C1B1A" stroke-width="10.6667" stroke-miterlimit="10" stroke-linecap="round" stroke-linejoin="round"/>
<path d="M297.836 374.428C320.894 374.428 339.602 355.737 339.602 332.66" stroke="#1C1B1A" stroke-width="10.6667" stroke-miterlimit="10" stroke-linecap="round" stroke-linejoin="round"/>
<path d="M5.47559 332.66H256.07" stroke="#1C1B1A" stroke-width="10.6667" stroke-miterlimit="10" stroke-linecap="round" stroke-linejoin="round"/>
<path d="M47.2415 374.428H290.875" stroke="#1C1B1A" stroke-width="10.6667" stroke-miterlimit="10" stroke-linecap="round" stroke-linejoin="round"/>
<path d="M276.953 243.363L229.427 290.892" stroke="#1C1B1A" stroke-width="10.6667" stroke-miterlimit="10" stroke-linecap="round" stroke-linejoin="round"/>
<path d="M229.427 243.363L276.953 290.892" stroke="#1C1B1A" stroke-width="10.6667" stroke-miterlimit="10" stroke-linecap="round" stroke-linejoin="round"/>
</svg>
