<svg width="373" height="373" viewBox="0 0 373 373" fill="none" xmlns="http://www.w3.org/2000/svg">
<path d="M186.676 5.42076H75.301C36.8591 5.42076 5.69135 36.5901 5.69135 75.0341V186.416" stroke="#1C1B1A" stroke-width="10.6667" stroke-miterlimit="10" stroke-linecap="round" stroke-linejoin="round"/>
<path d="M367.661 186.415V297.797C367.661 336.241 336.494 367.41 298.052 367.41H186.676" stroke="#1C1B1A" stroke-width="10.6667" stroke-miterlimit="10" stroke-linecap="round" stroke-linejoin="round"/>
<path d="M186.676 367.41H75.3011C36.8591 367.41 5.69141 336.241 5.69141 297.797V186.415" stroke="#1C1B1A" stroke-width="10.6667" stroke-miterlimit="10" stroke-linecap="round" stroke-linejoin="round"/>
<path d="M186.676 240.783V186.415" stroke="#1C1B1A" stroke-width="10.6667" stroke-miterlimit="10" stroke-linecap="round" stroke-linejoin="round"/>
<path d="M186.676 186.416V132.047" stroke="#1C1B1A" stroke-width="10.6667" stroke-miterlimit="10" stroke-linecap="round" stroke-linejoin="round"/>
<path d="M186.676 367.41V313.042" stroke="#1C1B1A" stroke-width="10.6667" stroke-miterlimit="10" stroke-linecap="round" stroke-linejoin="round"/>
<path d="M186.676 5.42095V59.7891" stroke="#1C1B1A" stroke-width="10.6667" stroke-miterlimit="10" stroke-linecap="round" stroke-linejoin="round"/>
<path d="M186.676 186.416H132.311" stroke="#1C1B1A" stroke-width="10.6667" stroke-miterlimit="10" stroke-linecap="round" stroke-linejoin="round"/>
<path d="M60.0566 186.416H5.69135" stroke="#1C1B1A" stroke-width="10.6667" stroke-miterlimit="10" stroke-linecap="round" stroke-linejoin="round"/>
<path d="M313.296 186.416H367.662" stroke="#1C1B1A" stroke-width="10.6667" stroke-miterlimit="10" stroke-linecap="round" stroke-linejoin="round"/>
<path d="M186.676 186.416H241.041" stroke="#1C1B1A" stroke-width="10.6667" stroke-miterlimit="10" stroke-linecap="round" stroke-linejoin="round"/>
<path d="M186.676 240.783C180.533 237.216 173.416 235.145 165.793 235.145C142.735 235.145 124.028 253.836 124.028 276.913C124.028 299.989 142.735 318.681 165.793 318.681C173.416 318.681 180.533 316.61 186.676 313.042" stroke="#1C1B1A" stroke-width="10.6667" stroke-miterlimit="10" stroke-linecap="round" stroke-linejoin="round"/>
<path d="M241.042 186.415C237.474 192.559 235.403 199.677 235.403 207.299C235.403 230.376 254.111 249.067 277.169 249.067C300.227 249.067 318.935 230.376 318.935 207.299C318.935 199.677 316.864 192.559 313.296 186.415" stroke="#1C1B1A" stroke-width="10.6667" stroke-miterlimit="10" stroke-linecap="round" stroke-linejoin="round"/>
<path d="M186.676 132.047C192.819 135.615 199.937 137.686 207.559 137.686C230.617 137.686 249.325 118.995 249.325 95.918C249.325 72.8412 230.617 54.15 207.559 54.15C199.937 54.15 192.819 56.2211 186.676 59.7887" stroke="#1C1B1A" stroke-width="10.6667" stroke-miterlimit="10" stroke-linecap="round" stroke-linejoin="round"/>
<path d="M132.311 186.416C135.879 180.272 137.95 173.154 137.95 165.532C137.95 142.455 119.242 123.763 96.1838 123.763C73.1256 123.763 54.418 142.455 54.418 165.532C54.418 173.154 56.489 180.272 60.0564 186.416" stroke="#1C1B1A" stroke-width="10.6667" stroke-miterlimit="10" stroke-linecap="round" stroke-linejoin="round"/>
<path d="M186.676 5.4209H207.559" stroke="#1C1B1A" stroke-width="10.6667" stroke-linecap="round" stroke-linejoin="round"/>
<path d="M249.029 5.42068H298.052C336.494 5.42068 367.661 36.5901 367.661 75.0341V144.787" stroke="#1C1B1A" stroke-width="10.6667" stroke-linecap="round" stroke-linejoin="round" stroke-dasharray="31.77 31.77"/>
<path d="M367.661 165.532V186.416" stroke="#1C1B1A" stroke-width="10.6667" stroke-linecap="round" stroke-linejoin="round"/>
</svg>
