<?xml version="1.0" encoding="UTF-8" standalone="no"?>
<svg
   xmlns:dc="http://purl.org/dc/elements/1.1/"
   xmlns:cc="http://creativecommons.org/ns#"
   xmlns:rdf="http://www.w3.org/1999/02/22-rdf-syntax-ns#"
   xmlns:svg="http://www.w3.org/2000/svg"
   xmlns="http://www.w3.org/2000/svg"
   xmlns:sodipodi="http://sodipodi.sourceforge.net/DTD/sodipodi-0.dtd"
   xmlns:inkscape="http://www.inkscape.org/namespaces/inkscape"
   version="1.1"
   id="svg2"
   xml:space="preserve"
   width="3269.3333"
   height="3730.6667"
   viewBox="0 0 3269.3333 3730.6667"
   sodipodi:docname="shutterstock_1564939462.eps"><metadata
     id="metadata8"><rdf:RDF><cc:Work
         rdf:about=""><dc:format>image/svg+xml</dc:format><dc:type
           rdf:resource="http://purl.org/dc/dcmitype/StillImage" /></cc:Work></rdf:RDF></metadata><defs
     id="defs6" /><sodipodi:namedview
     pagecolor="#ffffff"
     bordercolor="#666666"
     borderopacity="1"
     objecttolerance="10"
     gridtolerance="10"
     guidetolerance="10"
     inkscape:pageopacity="0"
     inkscape:pageshadow="2"
     inkscape:window-width="640"
     inkscape:window-height="480"
     id="namedview4" /><g
     id="g10"
     inkscape:groupmode="layer"
     inkscape:label="ink_ext_XXXXXX"
     transform="matrix(1.3333333,0,0,-1.3333333,0,3730.6667)"><g
       id="g12"
       transform="scale(0.1)"><path
         d="m 16403.9,9452.54 2816.9,24.05 c -99.7,110.98 -155.8,265.63 -153.1,477.6 l 16.6,1299.71 c -614.9,-358.2 -1192.4,-765 -1757.2,-1163 -310,-218.46 -616.4,-434.28 -923.2,-638.36 z M 5351.93,12324 c -69.58,33.6 -121.47,-74.8 -51.64,-108.6 71.57,-34.3 143.45,-67.2 216.39,-98.5 71.39,-30.2 118.32,79.6 47.26,110.5 -71.46,30.7 -141.87,62.9 -212.01,96.6 z M 18261.1,25912.6 c 0.5,77.6 -116.8,79.7 -117.9,-0.6 -0.7,-79.9 -1.7,-159.7 -2.9,-239.5 -1.2,-79 116.2,-79.5 117.9,-0.5 1.3,80.2 2.3,160.4 2.9,240.6 z m -10.9,-601.3 c 1.8,80.1 -115.6,79.8 -117.8,1.9 -2.1,-79.9 -4.7,-159.8 -7.5,-239.6 -2.3,-80.3 115,-80.4 117.8,-2.7 2.8,80.1 5.5,160.3 7.5,240.4 z m -22.2,-601 c 3.4,78.4 -113.8,83.7 -117.7,4.2 -3.8,-79.8 -7.7,-159.6 -12.2,-239.3 -4,-79.7 113.2,-83.5 117.7,-5.3 4.5,80.1 8.5,160.3 12.2,240.4 z m -34.9,-600.9 c 5.7,79.1 -111.9,85.7 -117.6,7.2 -5.7,-79.6 -11.8,-159.1 -18.6,-238.6 -6.4,-80.2 110.7,-86.4 117.4,-8.9 6.9,80 13.1,160.2 18.8,240.3 z m -54.8,-600.8 c 9,77.3 -107.3,92.4 -117.1,12.7 -9.1,-79.4 -18.7,-158.5 -28.7,-237.8 -10.3,-79 106.2,-92.2 116.9,-14.3 10,79.7 19.7,159.5 28.9,239.4 z m -78.5,-597.6 c 11.5,79.3 -104.8,93.8 -116.6,16.5 -12,-78.9 -24.3,-157.7 -37.1,-236.6 -12.4,-77.5 103.2,-97 116.3,-18.3 12.9,79.4 25.3,158.8 37.4,238.4 z m -100,-595.1 c 14.8,78 -100.5,98.7 -115.8,21.4 -14.8,-78.5 -30.1,-156.8 -45.8,-235.1 -16,-78.1 99.1,-100.1 115.4,-23.2 15.8,78.9 31.2,157.8 46.2,236.9 z m -122.3,-590.9 c 17.4,76.1 -96.4,104.1 -114.8,26 -17.8,-77.9 -36,-155.6 -55,-233.2 -18.9,-77.7 95.3,-103.8 114.4,-27.8 19.1,78.2 37.5,156.6 55.4,235 z m -145.6,-585.7 c 20.7,77.4 -92.9,106 -113.6,30.5 -20.7,-77 -42.4,-153.7 -64.4,-230.4 -21.8,-75 90,-109.8 113,-32.9 22.2,77.5 44.1,155 65,232.8 z m -169.8,-579.5 c 23.6,74.7 -87.5,111.7 -112.1,35.6 -24.1,-76.1 -48.9,-152 -74.2,-227.7 -25.2,-76 86.2,-111.7 111.5,-37.6 25.5,76.4 50.5,152.9 74.8,229.7 z m -194.6,-571.8 c 27.5,74.9 -82.8,114.5 -110.3,40.8 -27.5,-75 -55.5,-149.6 -84.2,-224.2 -28.7,-74.5 80.9,-115.9 109.7,-42.7 28.9,75.2 57.2,150.5 84.8,226.1 z m -219.9,-562.5 c 30.7,73.1 -77.8,118.8 -108.3,46 -30.8,-73.7 -62.2,-147 -94.2,-220.1 -32,-73.2 75.6,-119.6 107.5,-47.9 32.3,73.8 64,147.7 95,222 z m -245.3,-551.8 c 33.6,71.9 -72.2,122.3 -106.1,51.1 -34,-72 -68.7,-143.9 -104.2,-215.2 -35.6,-71.8 69.7,-123.2 104.9,-53.4 35.9,72.1 71,144.7 105.4,217.5 z m -271,-539.8 c 37.9,70.6 -66.3,125.4 -103.3,56.5 -37.6,-70.3 -75.6,-140.4 -114.3,-210.2 -39,-69.8 64.3,-126.4 102.3,-58.3 39.1,70.4 77.4,141 115.3,212 z m -295.9,-525.9 c 39.7,67.2 -59.1,129.9 -100.6,61.4 -40.7,-68.6 -82.1,-136.5 -124,-204.3 -41.4,-66 56.7,-131.4 99.2,-63.5 42.4,68.5 84.2,137.2 125.4,206.4 z m -320.4,-511.1 c 43.2,66.6 -54.1,131.7 -97.6,66.1 -44.1,-66.4 -88.4,-132.4 -133.6,-198.1 -44.2,-64.4 50.3,-133.5 96.2,-68.1 45.6,66.3 90.5,133 135,200.1 z m -344.2,-495.2 c 47,64.7 -47.7,133.7 -94.2,70.9 -46.9,-64.2 -94.4,-128.2 -142.6,-191.5 -48.2,-63.7 45,-134.7 92.8,-72.9 48.6,63.9 96.6,128.5 144,193.5 z m -366.6,-478.4 c 49.9,62 -41.2,136.3 -90.7,75.6 -49.9,-62 -100.3,-123.6 -151.3,-184.8 -51,-61.3 39.1,-136.9 89.4,-77.1 51.4,61.8 102.2,123.8 152.6,186.3 z m -387.7,-460.5 c 51.8,59.1 -34.8,138.9 -87.2,79.5 -52.5,-59.6 -105.6,-118.9 -159.2,-177.5 -53.8,-59 32.8,-138.7 85.7,-81.3 54.1,59.2 107.7,119 160.7,179.3 z m -407.5,-442.7 c 55.2,57.5 -29.3,139.5 -83.5,83.6 -55.2,-57.3 -110.8,-114.1 -166.8,-170.6 -54.9,-55.4 26,-141.1 82.3,-84.8 56.4,56.8 112.4,114.1 168,171.8 z m -425.5,-424.3 c 56.7,54.4 -23,141.2 -80.1,87 -57.3,-54.9 -115.2,-109.4 -173.5,-163.2 -58.5,-54 21.3,-141.3 78.6,-88.5 58.7,54.3 117.2,109.3 175,164.7 z m -442.3,-406.3 c 59.4,52.5 -17.2,141.7 -76.3,90.5 -59.7,-52.5 -119.6,-104.6 -179.9,-156.3 -60.4,-51.7 15.7,-141.9 75.1,-91.5 60.7,52 121,104.4 181.1,157.3 z m -457.3,-388.2 c 61,50.1 -11.8,142.5 -72.9,93.4 -61.5,-50.3 -123.4,-100 -185.5,-149.4 -62.2,-50.1 10.8,-142.3 71.7,-94.3 62.5,49.7 124.8,99.7 186.7,150.3 z m -470.9,-370.7 c 63.1,48.1 -7.1,142.6 -69.5,96 -63.2,-48 -126.7,-95.3 -190.5,-142.5 -62.5,-45.7 3.8,-144 68.1,-97.1 64.2,47.6 128.3,95.3 191.9,143.6 z m -483.1,-353.7 c 65,45.9 -3,143.1 -66.3,98.4 -64.7,-45.8 -129.8,-91 -195,-136 -65.5,-45.2 0.7,-142.8 64.8,-99.3 65.8,45.3 131.3,90.8 196.5,136.9 z m -494,-337.3 c 66.2,44.2 1.6,142.8 -63.2,100.5 -66.1,-43.7 -132.6,-86.9 -199.2,-129.8 -66.5,-42.8 -3.6,-143.2 62,-101.3 67,43.2 133.8,86.6 200.4,130.6 z m -503.8,-321.8 c 67.2,41.5 6.4,143 -60.1,102.5 -67.4,-41.6 -135,-82.9 -202.9,-123.8 -66.6,-40.5 -8.8,-143.5 59,-103.1 68.2,41.1 136.2,82.6 204,124.4 z m -512.3,-306.8 c 68.4,40.1 9.9,142.7 -57.4,104.1 -68.4,-39.5 -136.3,-78.1 -205.8,-115.6 -69.8,-37.6 -14.6,-142.4 53.8,-106.1 70.7,38.1 139.8,77.4 209.4,117.6 z m -531.8,-278.6 c 70,32.2 25.3,141.9 -47.2,109.3 -71.4,-32.9 -142.97,-64.3 -215.44,-94.5 -72.67,-30.1 -29.14,-140.3 42.99,-111.2 73.95,30.8 146.85,62.8 219.65,96.4 z m -555.46,-224.3 c 74.57,26.1 36.37,138.6 -36.66,113.6 -74.14,-25.5 -148.31,-49.7 -223.27,-72.5 -75.44,-23.1 -41.69,-137.1 32.24,-115 76.45,23.3 152.08,47.9 227.69,73.9 z m -574.06,-167.6 c 76.74,18.5 49.63,134.4 -25.3,116.9 -76.14,-18 -152.2,-34.6 -228.91,-49.7 -75.39,-14.7 -56.69,-132.9 20.71,-117.9 78.25,15.4 155.82,32.4 233.5,50.7 z m -586.89,-109 c 75.97,10.1 64.72,128.9 -13.56,119.1 -77.43,-10.3 -154.62,-18.9 -232.34,-26.3 -76.89,-7.3 -69.07,-126.3 8.86,-119.5 79.28,7.5 158.04,16.3 237.04,26.7 z m -593.8,-48.5 c 77.54,2.7 75.76,122.1 -1.92,119.9 -77.94,-2.1 -155.42,-2.8 -233.35,-2.1 -78.75,0.5 -82.17,-118.8 -5.91,-120 80.62,-0.5 160.54,-0.1 241.18,2.2 z m -595.13,13.4 c 77.77,-5.9 87.32,113.2 10.44,119.7 -77.59,6.1 -154.72,13.4 -231.97,22.6 -78.39,8.9 -90.93,-110 -15.37,-119.2 78.91,-9.4 157.66,-16.9 236.9,-23.1 z m -589.84,76.7 c 77.31,-14.2 98.09,103.6 23.01,118 -76.46,14.3 -152.17,30.1 -227.97,47.5 -77.17,17.8 -99.23,-99.7 -33.35,-115.5 79.03,-18.7 158.47,-35 238.31,-50 z m -577.57,140.4 c 75.38,-22.5 108.16,92.7 35.2,115 -74.37,22.5 -147.85,46.6 -221.2,72.2 -73.98,25.9 -112.2,-87.6 -40.14,-113.4 75,-26.1 150.11,-50.8 226.14,-73.8 z M 16467,24977.4 c -14,9.8 -26.2,22.3 -36.6,37.2 -85.5,123.5 -43.5,527.9 34.1,657.9 15.6,26.2 34.6,48.1 57.4,64.5 84.1,61 268.6,143.9 463.1,169.5 294.6,38.7 583.2,-61.7 683.2,-367.3 65.5,-200 23.9,-440.5 -115.4,-601.5 -182.4,-210.8 -492.5,-200.7 -736.4,-133.8 -127.1,34.9 -244.4,92.7 -349.4,173.5 z m 153.4,183.9 c 78.2,-58.1 165.3,-100.1 259.5,-125.9 145.3,-39.8 384.9,-70.2 497,59.4 83.1,96 107.3,247.6 68.4,366.5 -63.2,193 -254.8,230.9 -433.5,207.4 -148.1,-19.4 -283,-76.6 -347.8,-120.5 -35.2,-62.7 -59.3,-314.5 -43.6,-386.9 z m -259.1,-1808.9 c -14,9.8 -26.2,22.3 -36.6,37.3 -85.5,123.4 -43.5,527.8 34.1,657.8 15.6,26.2 34.6,48.1 57.4,64.5 84.1,61 268.6,144 463.1,169.5 294.6,38.7 583.2,-61.7 683.2,-367.3 65.5,-200 23.9,-440.5 -115.4,-601.5 -182.4,-210.8 -492.5,-200.6 -736.4,-133.8 -127.1,34.9 -244.4,92.8 -349.4,173.5 z m 153.4,184 c 78.2,-58.2 165.3,-100.2 259.5,-126 145.3,-39.8 384.9,-70.2 497,59.4 83.1,96 107.3,247.6 68.4,366.5 -63.2,193 -254.8,230.9 -433.5,207.4 -148.1,-19.4 -283,-76.6 -347.8,-120.5 -35.2,-62.7 -59.3,-314.5 -43.6,-386.8 z m -338.9,-1762.6 c -13.8,11 -25.2,24.4 -34.3,39.9 -76.1,129.6 0.9,529.8 87.7,653.7 18.1,25.8 38.9,46.7 62.6,61.3 88.3,54.5 278.4,123.8 474.8,135.6 292.9,17.6 572.2,-99.3 649.8,-409 51.4,-205.2 -11,-445.4 -161.1,-596.1 -197.4,-198.2 -505.9,-168.1 -745.9,-83.1 -123.8,43.8 -235.8,109.8 -333.6,197.7 z m 166.6,171.3 c 72.6,-63.1 155.3,-110.8 246.2,-143 145,-51.3 379.7,-97 502.7,26.5 91,91.3 127.7,240.7 96.7,364.6 -48.6,193.8 -235.3,242.7 -411.2,232.2 -149.5,-9 -289.9,-57.5 -358.3,-97.2 -39.6,-59.6 -85.7,-310.2 -76.1,-383.1 z m -5897.8,-6543.3 c -639.98,-58.6 -1283.71,-144.3 -1887.65,-267.7 264.07,-166.2 546.56,-303.3 818.36,-456.4 328.34,199.1 651.29,417.2 964.29,646.5 35.1,25.7 70.2,51.6 105,77.6 z m -2783.63,-489.9 c -342.17,-102.6 -659.65,-221.7 -941.72,-360 50.77,-38.1 105.29,-74.6 162.86,-110.2 272.55,153.2 531.91,309.8 778.86,470.2 z m -1175.76,-478.8 c -36.5,42.4 -47.49,42.6 -104.56,14.4 -350.94,-186.4 -733.12,-352.3 -1141.85,-517.6 172.31,-15 329.16,-47.2 482.75,-83.8 322.7,151.8 629.88,306.4 922.42,464.4 -55.9,38.7 -108.99,79.2 -158.76,122.6 z m 791.18,604.9 c 229.72,79.8 472.33,151 724.45,214.5 -71.45,65.9 -139.54,137 -203.63,214.9 -169.55,-146 -343.23,-289.2 -520.82,-429.4 z m 1490.8,380.3 c 523.02,96.5 1070.08,167 1615.11,218 -271.7,154.3 -543.59,314.4 -799.26,512.6 -252.75,-252.9 -524.07,-496 -815.85,-730.6 z m 3004.51,1083.5 c -632.2,-17.6 -1319.9,-85.5 -1968.07,-219.1 314.57,-231.8 658.67,-414.3 996.47,-607.9 342.1,270.3 668.3,549.8 971.6,827 z m -2529.53,-355 c -476.24,-134.3 -909.79,-310.2 -1255.06,-534.5 86.55,-103.3 182.29,-194.3 284.99,-277 350.52,259.5 672.91,529.3 970.07,811.5 z m 679.24,2019.5 c 607.59,897 993.79,1749.3 1317.69,2775.6 0.8,2.9 1.7,5.7 2.7,8.5 148.2,470.2 299.7,994.5 444.3,1566.2 186.1,735.2 361.4,1550.9 504.7,2433.9 71.3,439.6 243.4,1457.6 887.3,1561.6 167.8,934.8 726.8,1461.5 1680.1,1463.6 864.1,1.9 2312.7,-552.7 2951.1,-1103.7 713.1,-168.9 1896.6,-588.7 2835.4,-1052.7 836.7,-413.4 1466.1,-697.8 1595.4,-1667.1 158.1,-1185.1 212.3,-2438 350.5,-3645.4 41.8,-365.2 186.9,-2005.7 295.1,-3920.6 64.4,-1138.2 115.6,-2375 124.1,-3500.8 1.5,-202.1 2,-393.7 1.3,-575.5 0.3,-3.2 0.4,-6.5 0.4,-9.8 0,-3.6 -0.2,-7.2 -0.5,-10.7 -1.8,-436.7 -10.4,-816.9 -27.2,-1150.9 -24.3,-483.7 -65.7,-873.3 -128.5,-1199.3 -62.6,-325.4 -190.3,-540.62 -387.2,-679.47 l -1138.8,-2006.66 -0.9,-1.43 c -114.9,-197.47 -308.4,-321.1 -539.9,-372.09 -226.7,-49.94 -491.1,-29.26 -750.7,61.09 -8.9,-35.56 -17.5,-73.14 -25.5,-112.25 -21.3,-102.9 -39,-215.31 -52.5,-328.97 401.6,235.69 845.7,306.04 1301.7,296.04 645.8,-14.16 1335.4,-98.91 1933,-351.94 690.1,-292.15 1127,-885.58 1314.7,-1575.4 126.2,-463.47 139.6,-970.72 41.4,-1458.44 -98.5,-488.71 -308.9,-958.64 -630.1,-1346.44 -476.1,-574.7 -1193.2,-968.23 -2146.8,-974.95 -459.2,-3.24 -951.3,62.72 -1402.7,212.33 -523.7,173.54 -994.8,456.02 -1325.7,908.42 -113.7,155.54 -206.3,323.76 -278.9,500.79 -535.6,-501.56 -1233.4,-701.92 -1945.2,-707.09 -836.8,-6.07 -1833.5,211.3 -2465.3,793.17 -619.5,570.41 -825.6,1456.84 -710,2287.23 84.2,605.32 338.8,1196.47 740,1646.54 98.1,110.08 205.1,211.81 320.6,303.37 -65,-3.05 -142.3,-9.35 -234.6,-19.36 l -110.9,-11.95 c -739.8,-79.36 -1812.1,-194.45 -2065.2,-544.48 -5.7,-9.38 -10.7,-17.76 -14.9,-24.63 -104.3,-171.12 -219.8,-341.35 -388.7,-473.62 -105.7,-82.75 -229.9,-148.92 -381.4,-188.74 l 0.5,-1.26 c 46.8,-134.63 25.8,-290.8 -50.5,-411.72 214.4,-51.8 413.2,-116.26 595.7,-193.54 1165.2,-493.25 1597.4,-1835.41 1356,-3033.84 C 13030.2,927.691 11953.4,18.5117 10535.7,8.51563 10076.5,5.27734 9584.42,71.2344 9132.96,220.844 8609.3,394.383 8138.23,676.871 7807.32,1129.27 7712.73,1258.58 7632.79,1396.67 7566.83,1541.3 7341.7,1322.21 7069.48,1142.77 6750.54,1015.43 5866.26,662.359 4606.38,766.73 3769.36,1168.62 3299.39,1394.28 2907.75,1730.92 2666.54,2198.4 1925.46,2439.34 1181.25,2866.58 544.031,3309.75 350.059,3444.66 155.75,3633.47 63.8398,3856.28 -34.3867,4094.43 0.320313,4323.16 156.949,4528.26 l 0.117,-0.1 L 1813.46,6955.3 C 1309.75,7373.09 649.977,8085.51 498.648,8747.57 c -228.39,223.71 -154.371,787.3 54.821,1002.86 -691.539,2356.27 1609.911,3243.87 3807.661,4090.97 701.75,270.6 1505.08,554.2 2147.37,951.6 474.08,293.4 912.12,653.6 1321.05,1016.5 414.91,368.2 813.06,764.9 1182.91,1185.4 326.23,371 631.42,761.6 908.95,1171.4 z M 8552.96,16165 c 230.21,92.7 476.59,172.8 732.95,241.2 -84.72,82.5 -166.62,171.2 -244.98,267.7 -157.2,-172.8 -319.96,-342.5 -487.97,-508.9 z m 1010.94,310.1 9.51,2.2 c 292.69,307.1 558.69,628.7 801.49,967.1 -464.02,-144.6 -870.15,-342.6 -1164.92,-600.6 110.13,-137.5 228.98,-258.9 353.92,-368.7 z m 404.79,83.2 c 545.01,99.7 1110.41,155.9 1643.61,177.2 -352.2,180.4 -712.9,356.7 -1043.5,575 -186.2,-260.2 -385.8,-510.5 -600.11,-752.2 z M 13007.1,17747 c -743.3,30.6 -1557.5,-30.4 -2277.7,-204.9 -7.8,-11.5 -15.6,-23.1 -23.4,-34.6 426.2,-280.5 904.8,-494.2 1355,-735.7 358.4,341.8 678.1,674.2 946.1,975.2 z m -3335.67,-324.4 c 153.28,75.3 317.26,142.4 489.47,201.9 -68.1,62.3 -132.4,127.9 -192.56,197.4 -96.14,-135.2 -195.18,-268.3 -296.91,-399.3 z m 757.87,286.6 c 51.7,14.8 104,29.1 156.7,42.7 177,269.1 339.8,547.4 489.3,833 -380.9,-152 -711.1,-343.4 -951.6,-577 90.3,-108.2 193,-206.8 305.6,-298.7 z m 484.4,118.3 c 554.5,113.6 1149.7,166.3 1720.1,166.8 -430.9,179.9 -889.6,359.7 -1281,616.3 -135.1,-267.3 -281.2,-528.8 -439.1,-783.1 z m 3069.4,1214.2 c -788.1,23.5 -1646.3,-68.2 -2408.5,-287.2 508,-308.4 1107.5,-507 1651.1,-754.9 286.3,342.3 537.3,691 757.4,1042.1 z m -3546.9,-505.3 c 188.8,112.3 398.7,211.2 623.1,297 -106.9,95.3 -202,199.7 -282.6,315.9 -106,-207.3 -219.6,-411.7 -340.5,-612.9 z m 1099.6,454.3 c 679.7,192.7 1418.1,284.9 2120.8,293.4 -519.2,195.7 -1071.3,388.7 -1552.9,664.4 -69,-23.7 -136.9,-48.5 -203.5,-74.5 -113.1,-305.2 -234.2,-599.3 -364.4,-883.3 z m 4643.8,1325.9 c 61.1,-21.5 92.9,-89.5 71,-151.9 -21.9,-62.4 -89.1,-95.6 -150.2,-74.1 -80,28.2 -164.1,54 -251.8,77.1 60.1,-133.6 220.6,-214.4 361.3,-212.6 272.6,3.6 322,261 111.3,415.8 -111.1,81.6 -298.2,120.4 -419.8,30.5 97,-25.3 189.9,-53.6 278.2,-84.8 z m -586.4,-90.6 c -214.2,41.9 -444.7,70.6 -685.4,86.2 -148.1,-350.5 -320.6,-704.1 -522.3,-1056.9 208.6,-88 407.7,-180.4 589.5,-281 205.8,152.2 500.1,115 695.6,-28.7 217.8,-159.9 321.4,-469.2 121.8,-692.3 -196.2,-219.1 -544.7,-191.6 -762.2,-31.8 -171.3,125.8 -281,348 -202.1,559.9 -173.7,93.9 -364.9,181.2 -565.6,265.1 -234.5,-387.4 -504.8,-772.8 -816.9,-1151 154.5,-76.1 305.7,-157.8 450.7,-247.7 50.6,33.3 109.5,57.9 174.4,71.5 173.7,36.2 359.2,-10.3 500.9,-114.4 217.7,-160 321.4,-469.3 121.7,-692.3 -196.1,-219.2 -544.6,-191.7 -762.2,-31.9 -178.1,130.9 -288.7,366.3 -192.7,582.8 -145,88.1 -297,168.2 -452.5,243.3 -6.7,-7.7 -13.4,-15.4 -20.1,-23.1 -274.7,-314.4 -609.2,-666.8 -988,-1031.1 180.6,-102.3 360.5,-212.5 536.2,-335.1 204.3,122.7 474.1,82.1 658.6,-53.4 217.7,-159.9 321.4,-469.3 121.7,-692.3 -196.1,-219.1 -544.7,-191.6 -762.2,-31.8 -184,135.2 -294.7,381.5 -184.1,601.1 -180.2,123.8 -365.9,235 -552.3,338.7 -332.1,-310.9 -694.2,-627.3 -1077.1,-933.3 141.8,-85.8 280.5,-175.9 413.9,-275.3 201.4,103.8 455,61.4 631.7,-68.4 217.7,-160 321.4,-469.3 121.7,-692.4 -196.1,-219.1 -544.7,-191.6 -762.2,-31.8 -192.5,141.5 -302.9,404.1 -170,626.8 -139.8,101.5 -286.6,193.7 -436.7,282.4 -112.5,-87.2 -226.6,-173.2 -342,-257.8 -282.3,-206.8 -572.88,-404.8 -868.5,-588.6 151.05,-93.6 300.8,-197.3 446.1,-318.1 197,86.1 434.3,42.1 603.2,-81.9 217.7,-160 321.3,-469.3 121.7,-692.3 -196.1,-219.1 -544.7,-191.6 -762.2,-31.8 -201.8,148.2 -310.62,428.2 -153.32,652.5 -157.72,126.6 -321.81,233.8 -487.11,331.3 -433.36,-255.8 -875.6,-478.3 -1316.81,-650.4 112.66,-85 223.8,-180.3 331.21,-289.2 185.82,57.1 394.41,11.3 548.7,-102 217.72,-160 321.37,-469.3 121.72,-692.4 -196.13,-219.1 -544.67,-191.6 -762.19,-31.8 -217.71,160 -321.37,469.3 -121.72,692.3 1.3,1.5 2.62,2.9 3.94,4.4 -127.19,122.8 -260.28,227 -394.81,318.6 -18.17,-6.2 -36.34,-12.3 -54.5,-18.4 -917.66,-304.7 -1420.34,-179.2 -1914.82,-55.8 -398.28,99.4 -977.84,194 -1374.32,41.1 C 2374.24,12820.7 269.914,12002.3 756.145,9903.73 c 14.363,-62 17.23,-75.88 107.39,-127.52 828.175,-474.52 2725.395,-709.4 4832.615,-795.07 3126.03,-127.1 6699.95,77.58 7961.15,315.87 1372.1,259.22 2137.7,851.39 3079.4,1579.59 317.3,245.5 654.5,506.2 1049.8,780.9 690.2,479.7 1498.8,835.5 2269,1089.5 1101.5,363.3 2128.9,519.8 2617.4,532.7 -12.5,1062 -61.5,2218.2 -122.1,3290.3 -107.7,1906.3 -252.5,3542 -294.2,3906.5 -138,1205.9 -191.6,2457.2 -349.5,3640.7 -117.8,882.5 -666.3,1090.2 -1467.4,1486 -855.8,423 -2024.3,888.1 -3014.5,1083.5 -432.7,76.6 -781.9,87.1 -1040.4,-15.1 -243.9,-96.5 -412.7,-302.5 -503.1,-663.2 -35.8,-143 -44.2,-418.7 -55.5,-789.8 -31.6,-1038.2 -85.3,-2798.8 -823.3,-4673.6 224.3,-17.3 439.7,-45.7 641.8,-85.3 165.5,293.4 574.8,283 815.6,106.1 398.4,-292.7 245.2,-844.2 -250.4,-850.7 -285.5,-3.7 -593.8,205.1 -616.7,510.9 z m -936.9,97.6 c -737.6,19.7 -1516.9,-72.5 -2232,-274.8 555.4,-279 1162.8,-472.9 1741.1,-703.4 187.8,326.2 350.2,653.3 490.9,978.2 z M 11600,19745.4 c -249.3,-117.5 -474.1,-252.5 -664.4,-404.8 87.3,-138.7 199.9,-260.3 331.7,-369.8 118.1,249.7 228.7,507.7 332.7,774.6 z m -560.3,-39.8 c 203.4,131.7 431.5,248.5 677,350.3 14.4,39.7 28.7,79.7 42.8,119.9 -158.9,123 -291.2,258.5 -387.9,411 -98.2,-300.2 -205.9,-591.3 -331.9,-881.2 z m 1093.9,503.6 c 827,268.7 1759.8,384.7 2621.1,350.3 751.1,1865.5 805.2,3629 836.6,4662.5 11.8,388.7 20.6,677.4 62,842.5 111.6,445.7 329.6,703.9 648.5,830.1 235.3,93 521.5,109 857.9,72.7 -672.8,382.2 -1624.8,771.1 -2403.3,769.3 -899.7,-2 -1347.6,-513.9 -1466.1,-1387.1 -330,-2429.4 -686,-4414.8 -1250.2,-6080.7 30.3,-20.2 61.5,-40 93.5,-59.6 z M 7121.48,14305.1 c 235.29,-126.8 472.45,-245.4 698.53,-389.6 438.76,158.7 880.81,371.7 1315.56,620.8 -293.05,159.9 -595.1,309.2 -868.46,502.4 -353.8,-253.7 -734.77,-497.6 -1145.63,-733.6 z M 8582.13,13245 c 45.17,-56.3 89.36,-115.6 132.33,-178.4 36.88,-53.9 23.48,-128.5 -29.94,-166.8 -53.41,-38.2 -126.63,-25.5 -163.51,28.4 -57.08,83.3 -116.8,160.3 -178.55,231.8 -89.79,-112.7 -2.44,-258.8 94.14,-329.7 116.56,-85.7 337.44,-128.9 449.9,-3.2 100.14,111.8 11.82,264.3 -87.63,337.4 -61.31,45.1 -137.27,74.6 -216.74,80.5 z m -1061.77,571.1 c -212.03,122.9 -432.35,229.5 -645.05,350.6 -252.16,-139 -515.15,-275.2 -789.56,-409.2 374.82,-84.5 790.45,-131.7 1434.61,58.6 z m 2746.84,211.9 c 53.4,-53.3 105.8,-109.5 157.2,-169.2 101.1,-117.6 -76.7,-276.4 -177.8,-158.9 -66.1,76.8 -134.5,147.7 -204.7,213.7 -57.29,-111.6 24.9,-237 112.5,-301.4 116.6,-85.6 337.4,-128.9 449.9,-3.2 100.1,111.9 11.8,264.4 -87.6,337.5 -69.7,51.1 -158.3,82.3 -249.5,81.5 z m 1390.3,1060.8 c 58.6,-51.9 115.8,-106.4 171.2,-164 107.2,-112.1 -62.3,-280.2 -169.5,-168.2 -69,71.7 -141.3,138.5 -216.4,201.5 -41.5,-109.2 36.9,-223.5 120,-284.5 116.6,-85.7 337.4,-128.9 449.9,-3.2 100.2,111.8 11.8,264.4 -87.6,337.4 -76.6,56.3 -172.4,86.1 -267.6,81 z m 1385.3,1059.3 c 63.1,-49.6 125.5,-101.2 186.9,-155 116.2,-102 -38.5,-284 -154.7,-182.1 -75.1,65.8 -151.9,128.3 -230.1,187.8 -25,-104.5 47.9,-206.2 126.3,-263.9 116.6,-85.6 337.5,-128.8 449.9,-3.2 100.2,111.9 11.8,264.4 -87.6,337.5 -82.4,60.5 -188.6,91.1 -290.7,78.9 z m 1091.3,1339.8 c 66.5,-48.6 131.2,-99.6 193.7,-153.2 117.4,-100.6 -35.5,-284.5 -152.9,-183.8 -74.1,63.6 -152,123.4 -232.9,180 -18.7,-101.9 51.8,-199.1 128.2,-255.2 116.6,-85.7 337.5,-128.9 450,-3.2 100.1,111.8 11.8,264.4 -87.7,337.4 -84.1,61.8 -194.2,92.9 -298.4,78 z m -2658,3424.9 c 63.7,-186.9 192,-350 365.8,-496.3 535,1605.5 880,3515.7 1198.6,5840.6 -430.3,-158.5 -554.5,-953.5 -617.6,-1342 -144.4,-889.9 -321.3,-1712.9 -509.2,-2455.5 -143,-565.1 -291.9,-1082.5 -437.6,-1546.8 z m 3743.4,-2086.4 c 94.1,-62.7 181.2,-128.6 259.9,-198.5 48.6,-43.1 53.2,-118.6 10.2,-168.6 -43,-50 -117.3,-55.6 -165.8,-12.5 -83.9,74.5 -179.6,144.7 -284.7,211.4 -10.1,-97.7 56.7,-187.8 130.2,-241.8 116.5,-85.6 337.4,-128.8 449.9,-3.2 100.1,111.9 11.8,264.4 -87.7,337.5 -87,63.9 -204.6,96 -312,75.7 z m 6817.4,-1408.3 c 73.1,25 39,138.7 -35.9,113.8 -76.3,-26.1 -150.9,-54 -225.7,-84.5 -72.8,-30.1 -29.1,-140.2 42.9,-111.2 72.5,29.5 144.7,56.6 218.7,81.9 z m -2901.3,-4414.9 c -4,-80 113.9,-82.6 117.8,-4.7 3.9,79.4 9.1,158.6 15.2,237.8 6.4,79.6 -110.7,86.5 -117.5,8.5 -6.2,-80.5 -11.5,-161 -15.5,-241.6 z m 53.3,603 c -10.1,-77.8 106,-93.6 116.9,-14.5 10.2,78.8 21.8,157.3 34.7,235.8 12.7,79.5 -103.5,95.2 -116.3,18.5 -13.1,-79.8 -24.8,-159.6 -35.3,-239.8 z m 104.4,597.3 c -17.3,-78.4 97.5,-101.6 114.9,-25.4 17.4,77.5 36,154.4 56.1,231.3 20.5,76.6 -93.4,106.4 -113.7,30.1 -20.5,-78.4 -39.6,-156.9 -57.3,-236 z m 160.8,585.5 c -24.8,-75 86,-112.4 111.6,-37.3 25,75.3 51.3,150 79.5,224.1 28.2,75.4 -81.8,115 -109.8,42.3 -28.8,-75.8 -55.8,-152.1 -81.3,-229.1 z m 222.5,565.7 c -33.1,-71.1 72.5,-122.6 106.4,-50.3 33.4,72 68.1,142.8 104.8,213.2 36.7,71.3 -67.4,124.4 -104,55.4 -37.5,-72.1 -73.1,-144.6 -107.2,-218.3 z m 288.8,535.2 c -41.5,-66.3 56.2,-131.3 99,-63.9 42.1,67.1 85.6,132.3 131.1,197.1 45.9,65.5 -49.7,133 -95.2,69.5 -46.9,-66.2 -91.7,-133.9 -134.9,-202.7 z m 358,491.7 c -51.5,-60.7 37.8,-137.3 88.7,-78 51,60.2 103.3,118.7 157.7,175.7 55.1,58 -30.1,139.3 -83.9,83.2 -56,-58.7 -109.9,-118.9 -162.5,-180.9 z m 426.1,432.6 c -60.2,-52.1 16.9,-141.8 75.7,-90.9 59.7,51.4 119.7,100.3 182.2,148.2 63.2,48.2 -7.1,142.6 -69.5,96.1 -64.6,-49.5 -126.7,-100.1 -188.4,-153.4 z m 488,359.2 c -65.9,-40.7 -7.9,-143.9 59.9,-102.6 66.7,41.1 134.3,79.6 203.4,116.5 70.1,37.1 14.9,142.5 -53.4,106.3 -71.2,-38 -140.9,-77.7 -209.9,-120.2 z M 2834.44,9429.56 c 12.49,-77.84 128.38,-57.51 116.47,20.29 -11.84,77.52 -22.45,156.24 -30.12,234.34 -8.65,79.74 -125.1,63.28 -117.29,-13.89 7.88,-80.24 18.79,-161.1 30.94,-240.74 z m 2613.24,3790.94 c 72.55,32 24.91,141.2 -45.61,110.1 -72.91,-32 -145.48,-64.8 -217.72,-98.4 -71.51,-33.5 -22.45,-141.4 47.94,-109 71.47,33.2 143.26,65.7 215.39,97.3 z M 4914.51,12967 c 68.53,35.8 17.79,143.2 -52.62,106.7 -71,-36.8 -141.41,-75.1 -211.08,-114.6 -68.7,-39.3 -11.07,-142.7 56.45,-104.6 68.42,38.8 137.52,76.4 207.25,112.5 z m -509.08,-296.4 c 66.25,44.3 1.65,142.9 -63.13,100.6 -67.19,-44.3 -133.45,-90 -198.6,-137.4 -63.05,-46.1 4.42,-143.6 67.96,-97.2 63.69,46.3 128.07,90.7 193.77,134 z m -469.66,-353.9 c 58.52,51.8 -16.78,142.6 -76.48,90.4 -61.23,-53.6 -120.06,-108.5 -177.99,-165.8 -56.11,-56.6 27.17,-139.9 82.3,-84.8 56.03,55.4 112.95,108.4 172.17,160.2 z m -408.33,-421.9 c 49.57,62.8 -42.68,135.6 -91.29,74.7 -51.19,-63.9 -99.37,-128.6 -145.69,-196.3 -44.28,-65.9 52.29,-132.1 96.71,-67.4 44.58,65.2 91.01,127.4 140.27,189 z m -319.89,-491.7 c 34.81,70.1 -68.93,124.7 -104.92,53.3 -36.93,-73 -71.29,-147.5 -101.92,-223.4 -28.98,-73.8 79.86,-117.2 109.2,-43.9 29.28,72.8 62.29,144 97.64,214 z m -208.68,-548.7 c 19.64,77.8 -94.42,104.5 -114.04,29 -20.78,-79.4 -37.92,-158.9 -52.36,-239.6 -13.74,-78.9 102.67,-96.5 116.09,-19.5 13.86,77.5 30.35,153.8 50.31,230.1 z m -91.44,-580.9 c 4.57,79.8 -113.25,83.5 -117.72,5.4 -4.92,-81 -6.84,-162.8 -6.33,-244 1.12,-78.26 118.48,-76.95 117.91,2.8 -0.5,78.8 1.36,157.1 6.14,235.8 z M 8785.11,5179.26 c -151.43,-95.65 -295.41,-217.08 -434.7,-368.12 -423.84,-459.57 -696.34,-1093.33 -770.34,-1739.62 -73.62,-643 49.77,-1296.14 417.02,-1798.21 301.73,-412.509 734.53,-666.564 1211.41,-824.603 427.62,-141.711 893.5,-204.184 1328.1,-201.117 1303.9,9.191 2286,837.45 2545.6,2127.11 218.5,1084.73 -158.2,2318.94 -1217.8,2767.53 -801.8,339.45 -2291.83,534.43 -3079.29,37.03 z m 2304.99,435.23 c 106.2,58.49 146.4,218.64 75.8,317.29 -673.8,-42.82 -1708.61,115.44 -2364.27,281.44 -104.71,-30.66 -190.6,-103.81 -127.66,-218.05 l 0.72,-1.31 c 76.05,-138.01 128.58,-233.4 51.82,-423.36 l -59.79,-184.4 c 686.91,433.46 1652.98,368.21 2417.28,229.51 z m -2131.18,807.39 c 632.44,-147.21 1447.58,-278.9 2128.78,-253.08 251.5,3.3 428.1,74.23 562.6,179.59 133,104.09 230.9,245.8 320,390.64 6.7,12.11 13.9,24.04 21.7,35.7 17.2,28.29 29.4,48.76 41.6,69.17 139.4,233.46 272.3,455.97 512.2,573.97 58.8,28.72 128.7,3.83 156.2,-55.62 27.4,-59.43 2.1,-130.91 -56.7,-159.64 -38,-18.7 -73.2,-42.42 -106.2,-70.15 489.8,177.2 1174.2,250.65 1700.7,307.13 l 110.9,11.94 c 751.5,81.54 789.5,-67.28 849.4,-301.9 20.5,-80.5 45.3,-177.6 164.5,-271.15 127.4,-100.07 546.1,-169.43 1000.3,-161.62 372.1,6.39 760.2,67.18 1021.9,209.09 664.1,359.96 1066,658.66 1347.4,867.84 394.4,293.17 574.1,426.71 895.1,328.01 1.3,-0.41 2.6,-0.84 3.9,-1.29 267.6,-60.58 468,-174.99 585.6,-302.04 65.3,-70.57 107.5,-147.16 124.7,-223.95 19.3,-86.65 7.1,-171.54 -38.9,-248.05 -8.8,-14.7 -18.9,-28.96 -30.2,-42.7 129.8,-18.31 254.8,-15.2 367.1,9.55 167.4,36.87 305.3,122.42 384.3,257.05 v 0.03 l 984.9,1735.68 c -140.4,-32.93 -299.4,-47.3 -478.2,-48.83 l -5503.1,-46.98 C 15285.3,8743.94 14527.9,8367.88 13697,8210.89 12423,7970.2 8955.63,7746.23 5811.12,7862.96 3788.21,7938.05 1894.8,8154.88 792.48,8599.83 998.297,8075.7 1496.2,7538.91 1914.24,7183.17 c 35.92,156.24 27.39,387.2 -80.63,508.37 -102.86,115.65 72.17,277.31 175.03,161.66 220.07,-246.88 199.27,-720.67 19.84,-999.63 l -1.84,-2.37 L 466.492,4565.1 c 540.738,57.88 1702.958,-430.55 2104.368,-739.12 122.83,-93.84 -19.95,-286.03 -142.79,-192.19 C 2071.48,3907.92 981.906,4367.31 505.078,4328.41 266.902,4308.98 196.516,4156.43 281.246,3951 354.953,3772.32 522.699,3616.77 678.527,3508.39 1226.83,3127.05 1935.43,2705.75 2627.96,2463.41 c 266.88,-93.39 1094.65,-357.86 1344.67,-61.46 78.94,93.59 37.79,203.61 -26.09,290.36 -92.09,125.19 96.75,270.16 188.84,144.97 71.11,-96.57 120,-211.1 115.58,-334.3 129.94,130.64 252.57,318.92 392.36,572.97 l 957.31,1739.77 -0.35,0.19 0.47,0.86 h 0.46 c 139.04,252.69 247.09,448.94 437.92,603.32 -92.69,3.7 -186.33,11.01 -286.26,19.76 -153.89,13.4 -130.86,251.82 23.03,238.42 327.52,-28.69 651.34,-35.39 975.07,42.54 610.18,146.9 803.56,606.85 1060.02,989.96 137.55,205.48 293.25,388.86 541.14,489.98 144.19,58.62 228.93,-163.4 84.75,-222 -116.19,-47.4 -209.93,-124.16 -292.43,-217.85 132.68,-164.35 571.63,-282.51 814.47,-339.02 z m -603.04,-1232.06 147.42,454.73 c 39.15,100.11 14.44,142.39 -34.04,230.37 l -0.72,1.31 c -75.94,137.81 -68.78,300.48 35.89,423.32 -167.39,56.27 -376.4,140.08 -505,267.7 -101.07,-152.85 -189.7,-312.98 -295.89,-462.78 131.85,-333 377.55,-688.36 652.34,-914.65 z M 7326.79,2845.41 c 3.29,83.42 9.76,166.93 19.3,250.23 79.7,696.12 374.67,1380.33 833.89,1878.27 8.93,9.69 17.93,19.29 26.98,28.84 -276.61,228.43 -521.01,564.82 -671.87,893.34 -167.11,-177.75 -383.22,-324.41 -701.2,-395.33 -5.92,-1.32 -11.71,-2.67 -17.55,-4 87.04,-323.09 119.62,-699.01 83.22,-1035.66 -19.65,-181.71 -62.06,-367.8 -142.44,-517.45 -74.52,-139.08 -280.87,-26.48 -206.35,112.62 32.75,60.96 58.79,133.25 78.61,213.46 -436.53,46.38 -833.25,-227.87 -944.08,-665.69 -103.89,-410.45 18.06,-785.39 413.41,-943.13 195.08,-77.82 454.15,-88.42 638.59,30.04 l -446.65,66.48 c -152.68,22.66 -115.83,259.39 36.85,236.73 333.1,-49.58 666.19,-99.16 999.29,-148.75 z m -294.66,-198.36 c -232.07,-311.41 -690.15,-341.81 -1021.85,-209.48 -505.46,201.66 -686.53,694.07 -552.52,1223.48 141.42,558.66 653.67,911 1210.74,845.69 29.14,301.65 -1.48,638.62 -80.21,927.69 -463.03,-151.68 -587.93,-378.44 -782.46,-731.96 l 0.35,-0.2 -0.47,-0.86 h -0.46 L 4847.83,2961.45 c -220.29,-400.36 -408.43,-656.82 -652.25,-800.99 -360.39,-213.11 -812.03,-146.79 -1195.94,-56.06 216.52,-313.23 519.57,-549.6 871.97,-718.81 780.08,-374.55 1970.9,-476.633 2796.02,-147.18 321.12,128.21 589.41,314.23 804.45,542.65 -88.51,261.92 -135.99,539.88 -145.89,822.22 z M 4746.16,2043.17 c -48.41,60.65 43.25,136.84 91.66,76.21 334.52,-416.6 816.1,-626.25 1345.52,-612.3 77.26,1.93 78.62,-117.59 1.39,-119.52 -566.03,-14.91 -1081.02,210.35 -1438.57,655.61 z m 6194.24,1827.19 c 474.1,-29.47 746.6,-482.48 746.6,-933.6 0,-291.66 -105.2,-587.39 -299,-806.12 -254.6,-287.39 -645.8,-409.74 -983.7,-227.58 13.7,-20.16 27.9,-39.74 42.7,-58.67 398.8,-511.69 1053.4,-427.72 1466.2,38.31 254.4,287.2 389.7,673.66 389.7,1056.16 l 0.5,0.01 c 0,567.02 -339.7,1170.35 -954.5,1162.29 -228,-2.98 -446.4,-95.66 -631,-250.51 73.5,17.72 147.5,24.37 222.5,19.71 z m -536.5,2.73 c 252.3,284.86 587.3,463.39 945,468.07 749,9.82 1189.4,-696.82 1189.4,-1399.22 l 0.4,0.01 c 0,-440.85 -158.4,-887.52 -451.4,-1218.21 -511.6,-577.59 -1335.7,-658.21 -1825.5,-29.9 -485.28,622.51 -374.69,1595.86 142.1,2179.25 z m 519.9,-242 c -623.7,38.64 -935.66,-910.87 -579.7,-1367.44 237.8,-305.08 624.5,-250.96 869.8,25.95 155.2,175.25 237.3,410.74 237.3,644.07 0,321.82 -180.5,675.85 -527.4,697.42 z M 9467.15,1999.17 c 7.24,-32.13 -12.55,-64.51 -44.22,-72.29 -31.67,-7.79 -63.22,11.94 -70.47,44.07 -241.12,1052.56 189.1,2303.65 1112.54,2892.88 65.9,41.82 127.2,-59.57 61.2,-101.38 C 9646.09,4200.82 9237.54,3001.5 9467.15,1999.17 Z m 5792.05,2660.58 c 0,78.93 117.9,80.47 117.9,1.54 0,-828.17 464.5,-1483.73 1271.9,-1655.24 75.4,-15.97 50.1,-133.02 -25.3,-117.05 -861.3,182.95 -1364.5,886.27 -1364.5,1770.75 z m -325.1,2516.52 c -176.6,-112.09 -335.3,-249.75 -475,-406.51 -368.4,-413.28 -602.4,-957.76 -680.2,-1516.38 -104.5,-751.55 74.2,-1561.52 636.3,-2079.13 585.6,-539.21 1532.7,-738.05 2306.9,-732.43 686.5,4.98 1361.7,203.76 1858,713.58 -79.5,268.26 -117.6,551.46 -117.8,837.59 -68.6,-37.38 -148.3,-72.12 -236.5,-103.54 -27.1,-43.31 -27.4,-126.12 -27.7,-209.63 -1.7,-449.83 -219.7,-558.77 -644.4,-594.79 -422.3,-35.82 -711.3,-2.44 -799.9,447.84 -17.2,87.31 -34.4,174.36 -77,201.46 -159.1,18.55 -313.7,48.83 -457.3,92.7 -113,34.49 -190.3,86.33 -237.9,145.95 -133.3,166.65 -39.4,370.98 126.9,466.26 -21.4,126.36 -116.4,111.42 -266.1,168.87 -284.4,109.11 -436.4,409.12 -456,705.91 -8.4,128.35 8.3,255.47 49.2,362.89 59.4,155.69 216.3,300.41 364.8,369.43 -50.9,173.33 -210.7,178.91 -229.2,504.46 -158.7,36.01 -283.3,83.28 -352.2,137.34 -181,142.13 -216.8,282.3 -246.5,398.52 -8.8,34.5 -16.6,65.2 -38.4,89.61 z m 3541.2,-2888.18 c 2.5,29.12 5.5,58.24 8.8,87.33 14.6,127.63 36.5,254.86 65.2,380.62 -617.9,-202.9 -1564.9,-314.97 -2217.1,-251.52 17.4,-69.43 26.9,-100.36 27.8,-156.16 1.3,-74.37 -88.2,-117.01 -158,-153.84 -54.6,-28.88 -46,-92.13 38.2,-120.03 14.9,-4.95 30.9,-12.17 49.3,-17.79 183.5,-56.03 394.5,-89 614.1,-100.93 199.2,-10.83 662.5,6.17 1047.8,95.69 222.8,51.75 419.4,127.75 523.9,236.63 z m -1519.6,-574.46 c 11.8,-42.24 20.6,-86.53 29.3,-130.86 60.3,-306.34 250.9,-284.51 553,-258.88 302.6,25.65 424,47.52 425.2,352.86 0.1,45.89 0.3,91.64 3.9,136.19 -326.2,-79.46 -677.9,-110.73 -1011.4,-99.31 z m 1670.9,1325.62 c 64.8,203.44 147.8,400.59 247.7,586.6 -271.2,-121.95 -569.6,-217.53 -876,-290.59 -564.7,-134.66 -1156.2,-193.25 -1653.4,-199.77 -369,-4.83 -597.2,73.94 -722.7,185.74 22.3,-272.99 146.1,-447.22 401.7,-520.83 570.1,-164.11 2093.7,-19.41 2602.7,238.85 z m -2900.4,555.29 c 3.2,-27.98 16.4,-56.29 42,-82.68 79.5,-81.61 256.3,-140.56 576.7,-136.37 484.8,6.35 1058.8,62.85 1602.7,192.54 433.7,103.41 848.5,253.13 1183.3,460.69 138.1,183.99 297.1,351.77 475.8,495.24 13.8,184.78 39.9,379.17 75.2,550.16 35.5,171.64 80.9,321.99 133.7,420.3 31.3,58.4 102.8,80.53 159.8,49.44 49,-26.71 71.2,-84 56.7,-136.65 35,18.5 59,39.64 72.6,62.27 12.2,20.2 15.1,44.05 9.4,69.53 -7.9,35.34 -30.8,74.29 -67.6,114.08 -106.2,114.79 -309.9,217.37 -594.3,256.88 -45.7,0.76 -90.5,-7.65 -137.3,-24.69 -17.6,-11.61 -32,-25.15 -43.3,-39.94 -17.6,-23.06 -27.8,-49.51 -30.4,-76.33 -1.6,-16.87 -0.4,-33.95 3.9,-50.49 30.7,41.52 85.4,59.69 135.3,40.96 60.5,-22.76 90.8,-91.41 67.7,-153.33 -87.6,-233.08 -231.1,-455.35 -395,-652.51 -202.5,-243.46 -437.6,-450.66 -636.1,-592.26 -10.4,-7.42 -21.5,-12.92 -32.9,-16.57 -1.9,-24.42 -2.7,-50.01 -1.9,-77.97 1.8,-73.41 13.3,-166.34 38.4,-299.35 12.2,-64.82 -29.7,-128.12 -93.5,-141.38 -63.9,-13.26 -125.5,28.53 -137.7,93.35 -27.3,144.62 -39.9,250.07 -42.2,338.67 -2.3,92.71 6.6,163.61 22.1,237.61 l 10.7,48.44 c 33.1,149.73 80.3,363.88 -15.7,563.05 -189,-120.58 -409.2,-251.97 -668.8,-392.66 -297,-161.04 -724.4,-229.8 -1129.7,-236.76 -193.4,-3.33 -383.4,8 -553.5,30.52 31.9,-212.71 213,-219.05 236.6,-531.62 v -0.01 c 0,-1 0.1,-2.01 0.1,-3.01 l 32.5,-323.55 c 15.2,-156.41 -218.8,-182.91 -234,-26.5 l -16.7,166.31 c -57,-43.94 -113,-120.64 -104.6,-195.41 z m 3076.5,-791.17 c -38.8,-148.6 -67.2,-299.98 -84.6,-452.08 -73.6,-643 49.7,-1296.13 417,-1798.2 301.7,-412.52 734.5,-666.57 1211.4,-824.61 427.6,-141.71 893.5,-204.18 1328.1,-201.12 876.3,6.18 1533,365.07 1967.2,889.16 294.6,355.67 487.8,787.8 578.5,1237.96 90.8,451.15 78.6,919.62 -37.7,1346.92 -169.7,623.57 -562,1158.92 -1180.2,1420.61 -568.5,240.69 -1234,320.82 -1848.2,334.29 -491.4,10.77 -957.4,-78.38 -1360.6,-386.25 -496.3,-378.89 -833.2,-962.86 -990.9,-1566.68 z m -437.8,2435.27 c 104.8,-195.64 104.6,-391.59 80.5,-557.47 142.6,117.62 293.5,262.9 428.9,425.75 95,114.15 181.9,236.42 252.3,362.99 -34.1,32.84 -61.1,70.11 -80.8,109.98 -19.3,38.94 -31.7,80.13 -37.1,121.93 -42.3,-30.63 -87.7,-64.42 -137.3,-101.23 -136,-101.12 -299.7,-222.75 -506.5,-361.95 z m 3713.5,-2088.5 c 474.1,-29.47 746.6,-482.5 746.6,-933.61 0,-291.66 -105.2,-587.39 -299,-806.12 -168.8,-190.54 -393.5,-309.98 -634.1,-313.13 -121.7,-1.6 -242.5,27.87 -349.6,85.56 171,-252.59 431.3,-411.42 738,-407.4 662.7,8.68 1111.5,706.44 1156.5,1324.99 41.8,576.96 -258.4,1240.13 -885.2,1279.1 -255.2,15.85 -499.1,-84.16 -695.7,-249.11 73.5,17.72 147.5,24.37 222.5,19.72 z m -536.5,2.72 c 263.7,297.69 629.3,490.61 1026.3,465.94 760.7,-47.28 1155.2,-819.26 1103.5,-1532.17 -54.2,-746.39 -601.3,-1540.84 -1391.4,-1551.19 -1295.4,-16.98 -1484.7,1774.99 -738.4,2617.42 z m 519.9,-242 c -192.9,11.95 -370.8,-87.47 -498.2,-231.33 -261.7,-295.46 -327.3,-820.82 -81.5,-1136.1 101.3,-130.06 244.4,-208.32 409.8,-206.15 171.6,2.24 334.8,90.78 460,232.1 155.2,175.24 237.3,410.73 237.3,644.06 0,321.82 -180.5,675.85 -527.4,697.42 z M 20605.2,3278.95 c 7.2,-32.13 -12.6,-64.51 -44.3,-72.3 -31.6,-7.79 -63.2,11.94 -70.4,44.08 -119.9,523.28 -73.6,1117.9 132.2,1653.71 191,497.6 519.6,945.19 980.3,1239.17 27.7,17.58 63.9,9.13 80.8,-18.86 16.9,-28 8.2,-64.95 -19.6,-82.53 -437.3,-279.05 -749.7,-705.35 -931.9,-1179.93 -197.2,-513.59 -241.8,-1082.91 -127.1,-1583.34 z m 1601.5,6357 c 7.2,6.05 15.1,11.16 23.3,15.28 146.9,101.22 243.7,268.8 294.1,530.87 61,316.5 101.1,695.1 124.8,1165.6 15.2,303.1 23.7,643.3 26.5,1028.2 -1283.7,-39.5 -2369.5,-444 -3354.5,-987.7 l -18.3,-1433.74 c -2.4,-189.11 58.8,-305.69 161.6,-372.97 115.1,-75.35 285.1,-100.39 481.3,-98.72 h 0.2 l 1587.7,13.56 c 288.4,2.46 512.4,39.5 673.3,139.62 z M 666.277,9480.75 c -67.152,-184.52 -145.566,-434.35 4,-564.88 1023.913,-497.19 3011.253,-734.24 5151.893,-813.7 3127.72,-116.1 6571.93,105.78 7835.13,344.45 1265.6,239.1 2375.1,1020.89 3538.1,1840.38 1557.3,1097.4 3208.9,2261.1 5481,2329 0.2,135.9 -0.2,277 -1.2,423.8 -472.6,-12.4 -1472.2,-165.2 -2549.7,-520.6 -752.1,-248.1 -1539.8,-594.1 -2208.2,-1058.7 -380.8,-264.6 -720.2,-527.1 -1039.7,-774.2 C 15911.2,9938.87 15125.4,9331.16 13697,9061.28 12424.7,8820.91 8826.67,8614.15 5684.17,8741.92 c -2092.24,85.06 -3988.51,319.96 -4881.26,794.14 -121.273,64.41 -86.14,83.44 -136.633,-55.31"
         style="fill:#000000;fill-opacity:1;fill-rule:nonzero;stroke:none"
         id="path14" /></g></g></svg>
