<svg width="659" height="659" viewBox="0 0 659 659" fill="none" xmlns="http://www.w3.org/2000/svg">
<path fill-rule="evenodd" clip-rule="evenodd" d="M45.1874 585.502C26.3346 585.502 10.4976 569.661 10.4976 550.803V45.4931C10.4976 26.646 26.3346 10.8046 45.1874 10.8046H613.805C633.413 10.8046 648.496 26.646 648.496 45.4931V550.803C648.496 569.661 633.413 585.502 613.805 585.502H45.1874Z" fill="#F1F1F1"/>
<path fill-rule="evenodd" clip-rule="evenodd" d="M10.4976 117.145V45.4926C10.4976 26.6455 26.3346 10.8041 45.1874 10.8041H613.805C633.413 10.8041 648.496 26.6455 648.496 45.4926V117.145H10.4976Z" fill="#C8EBFF"/>
<path fill-rule="evenodd" clip-rule="evenodd" d="M45.1874 553.067H613.805C615.314 553.067 616.821 552.316 616.821 550.803V45.4929C616.821 43.99 615.314 42.4769 613.805 42.4769H45.1874C43.6795 42.4769 42.1707 43.99 42.1707 45.4929V550.803C42.1707 552.316 43.6795 553.067 45.1874 553.067Z" fill="#F8F8F8"/>
<path fill-rule="evenodd" clip-rule="evenodd" d="M616.821 117.145H42.1707V45.4926C42.1707 43.9898 43.6795 42.4767 45.1874 42.4767H613.805C615.314 42.4767 616.821 43.9898 616.821 45.4926V117.145" fill="#D8F1FF"/>
<path fill-rule="evenodd" clip-rule="evenodd" d="M505.964 618.688C505.964 635.281 492.389 648.857 475.799 648.857H183.194C166.603 648.857 153.029 635.281 153.029 618.688V270.999C153.029 252.904 159.816 237.814 172.636 224.999L207.326 189.548C220.146 176.723 235.984 169.94 254.083 169.94H475.799C492.389 169.94 505.964 184.268 505.964 200.861C505.964 340.387 505.964 479.162 505.964 618.688" fill="white"/>
<path fill-rule="evenodd" clip-rule="evenodd" d="M153.029 265.719C154.537 249.888 160.569 236.311 172.636 224.998L207.326 189.548C220.146 176.723 235.984 169.939 254.083 169.939V242.343C254.083 255.168 242.77 265.719 228.442 265.719H153.029Z" fill="#F1F1F1"/>
<path d="M615.31 591.544H543.681C538.277 591.544 533.887 587.149 533.887 581.734C533.887 576.31 538.277 571.925 543.681 571.925H615.31C627.988 571.925 638.692 561.22 638.692 548.549V43.9901C638.692 31.3087 627.988 20.6037 615.31 20.6037H43.6836C31.0043 20.6037 20.3001 31.3087 20.3001 43.9901V548.549C20.3001 561.22 31.0043 571.925 43.6836 571.925H116.066C121.469 571.925 125.86 576.31 125.86 581.734C125.86 587.149 121.469 591.544 116.066 591.544H43.6836C19.9893 591.544 0.711426 572.244 0.711426 548.549V43.9901C0.711426 20.2846 19.9893 0.994861 43.6836 0.994861H615.31C639.004 0.994861 658.282 20.2846 658.282 43.9901V548.549C658.282 572.244 639.004 591.544 615.31 591.544" fill="#213B4F"/>
<path d="M648.487 104.329H61.0121C55.6075 104.329 51.2178 99.9338 51.2178 94.5195C51.2178 89.0949 55.6075 84.71 61.0121 84.71H648.487C653.891 84.71 658.282 89.0949 658.282 94.5195C658.282 99.9338 653.891 104.329 648.487 104.329Z" fill="#213B4F"/>
<path d="M598.733 62.8477H596.447C591.044 62.8477 586.653 58.4524 586.653 53.0381C586.653 47.6135 591.044 43.2286 596.447 43.2286C601.852 43.2286 607.385 47.6135 607.385 53.0381C607.385 58.4524 604.138 62.8477 598.733 62.8477" fill="#213B4F"/>
<path d="M548.201 62.8477H545.941C540.537 62.8477 536.147 58.4524 536.147 53.0381C536.147 47.6135 540.537 43.2286 545.941 43.2286C551.345 43.2286 556.879 47.6135 556.879 53.0381C556.879 58.4524 553.606 62.8477 548.201 62.8477" fill="#213B4F"/>
<path d="M254.075 179.749C238.746 179.749 225.366 185.38 214.273 196.476L179.639 231.864C168.312 243.187 162.831 255.961 162.831 270.999V618.677C162.831 629.918 171.976 639.048 183.2 639.048H475.794C487.017 639.048 496.163 629.918 496.163 618.677V200.861C496.163 189.415 486.836 179.749 475.794 179.749H254.075ZM475.794 658.667H183.2C161.167 658.667 143.241 640.726 143.241 618.677V270.999C143.241 250.794 150.802 232.976 165.689 218.061L200.321 182.693C215.077 167.922 233.653 160.14 254.075 160.14H475.794C497.461 160.14 515.751 178.792 515.751 200.861V618.677C515.751 640.726 497.825 658.667 475.794 658.667Z" fill="#213B4F"/>
<path d="M228.432 275.528H202.036C196.631 275.528 192.24 271.133 192.24 265.719C192.24 260.294 196.631 255.909 202.036 255.909H228.432C237.161 255.909 244.28 249.826 244.28 242.343V169.939C244.28 164.525 248.671 160.14 254.075 160.14C259.478 160.14 263.869 164.525 263.869 169.939V242.343C263.869 260.634 247.969 275.528 228.432 275.528" fill="#213B4F"/>
<path d="M310.634 445.985C309.855 445.985 309.023 445.882 308.218 445.677C302.97 444.349 299.8 439.006 301.126 433.757L338.849 285.173C340.2 279.954 345.397 276.701 350.775 278.101C356.023 279.419 359.193 284.761 357.867 290.01L320.143 438.595C319 443.021 315.025 445.985 310.634 445.985Z" fill="#213B4F"/>
<path d="M273.69 409.022C271.793 409.022 269.871 408.477 268.208 407.334L212.401 369.62C209.674 367.787 208.063 364.72 208.089 361.447C208.089 358.173 209.751 355.137 212.48 353.336L268.286 316.382C272.806 313.418 278.86 314.633 281.874 319.141C284.862 323.66 283.614 329.733 279.094 332.728L235.525 361.58L279.172 391.091C283.667 394.128 284.836 400.222 281.822 404.71C279.925 407.509 276.834 409.022 273.69 409.022" fill="#213B4F"/>
<path d="M385.303 409.022C382.159 409.022 379.068 407.509 377.171 404.71C374.157 400.222 375.326 394.128 379.821 391.091L423.469 361.58L379.898 332.728C375.378 329.733 374.131 323.66 377.119 319.141C380.133 314.612 386.212 313.397 390.706 316.382L446.513 353.336C449.241 355.137 450.904 358.173 450.904 361.447C450.93 364.72 449.319 367.787 446.592 369.62L390.785 407.334C389.123 408.477 387.199 409.022 385.303 409.022" fill="#213B4F"/>
<path d="M219.39 499.521H217.883C212.48 499.521 208.089 495.137 208.089 489.712C208.089 484.298 212.48 479.902 217.883 479.902C223.288 479.902 228.432 484.298 228.432 489.712C228.432 495.137 224.795 499.521 219.39 499.521" fill="#213B4F"/>
<path d="M219.39 547.046H217.883C212.48 547.046 208.089 542.651 208.089 537.236C208.089 531.822 212.48 527.427 217.883 527.427C223.288 527.427 228.432 531.822 228.432 537.236C228.432 542.651 224.795 547.046 219.39 547.046" fill="#213B4F"/>
<path d="M219.39 595.312H217.883C212.48 595.312 208.089 590.916 208.089 585.502C208.089 580.077 212.48 575.692 217.883 575.692C223.288 575.692 228.432 580.077 228.432 585.502C228.432 590.916 224.795 595.312 219.39 595.312" fill="#213B4F"/>
<path d="M345.345 499.521H265.403C259.998 499.521 255.607 495.137 255.607 489.712C255.607 484.298 259.998 479.902 265.403 479.902H345.345C350.748 479.902 355.14 484.298 355.14 489.712C355.14 495.137 350.748 499.521 345.345 499.521" fill="#213B4F"/>
<path d="M441.109 499.521H377.768C372.364 499.521 367.974 495.137 367.974 489.712C367.974 484.298 372.364 479.902 377.768 479.902H441.109C446.514 479.902 450.904 484.298 450.904 489.712C450.904 495.137 446.514 499.521 441.109 499.521" fill="#213B4F"/>
<path d="M377.768 547.046H265.403C259.998 547.046 255.607 542.651 255.607 537.236C255.607 531.822 259.998 527.427 265.403 527.427H377.768C383.173 527.427 387.563 531.822 387.563 537.236C387.563 542.651 383.173 547.046 377.768 547.046Z" fill="#213B4F"/>
<path d="M441.109 547.046H409.439C404.034 547.046 399.645 542.651 399.645 537.236C399.645 531.822 404.034 527.427 409.439 527.427H441.109C446.513 527.427 450.904 531.822 450.904 537.236C450.904 542.651 446.513 547.046 441.109 547.046Z" fill="#213B4F"/>
<path d="M297.826 595.312H265.403C259.998 595.312 255.607 590.916 255.607 585.502C255.607 580.077 259.998 575.692 265.403 575.692H297.826C303.23 575.692 307.621 580.077 307.621 585.502C307.621 590.916 303.23 595.312 297.826 595.312" fill="#213B4F"/>
<path d="M441.109 595.312H329.496C324.092 595.312 319.702 590.916 319.702 585.502C319.702 580.077 324.092 575.692 329.496 575.692H441.109C446.513 575.692 450.904 580.077 450.904 585.502C450.904 590.916 446.513 595.312 441.109 595.312Z" fill="#213B4F"/>
</svg>
