<svg width="468" height="699" viewBox="0 0 468 699" fill="none" xmlns="http://www.w3.org/2000/svg">
<g opacity="0.5">
<path d="M182.038 321C205.132 281 262.868 281 285.962 321L384.688 492C407.782 532 378.915 582 332.727 582H135.273C89.0851 582 60.2176 532 83.3116 492L182.038 321Z" fill="#00A3FF"/>
<path d="M182.038 321C205.132 281 262.868 281 285.962 321L384.688 492C407.782 532 378.915 582 332.727 582H135.273C89.0851 582 60.2176 532 83.3116 492L182.038 321Z" stroke="black"/>
</g>
<g opacity="0.5">
<path d="M285.962 378C262.868 418 205.132 418 182.038 378L83.3116 207C60.2176 167 89.0851 117 135.273 117L332.727 117C378.915 117 407.782 167 384.688 207L285.962 378Z" fill="#FF00F5"/>
<path d="M285.962 378C262.868 418 205.132 418 182.038 378L83.3116 207C60.2176 167 89.0851 117 135.273 117L332.727 117C378.915 117 407.782 167 384.688 207L285.962 378Z" stroke="black"/>
</g>
</svg>
